<?xml version="1.0" encoding="UTF-8" standalone="no"?>
<!-- Created with Inkscape (http://www.inkscape.org/) -->

<svg
   xmlns:dc="http://purl.org/dc/elements/1.1/"
   xmlns:cc="http://creativecommons.org/ns#"
   xmlns:rdf="http://www.w3.org/1999/02/22-rdf-syntax-ns#"
   xmlns:svg="http://www.w3.org/2000/svg"
   xmlns="http://www.w3.org/2000/svg"
   xmlns:sodipodi="http://sodipodi.sourceforge.net/DTD/sodipodi-0.dtd"
   xmlns:inkscape="http://www.inkscape.org/namespaces/inkscape"
   width="1024mm"
   height="1024mm"
   viewBox="0 0 1024 1024"
   version="1.1"
   id="svg909"
   inkscape:version="0.92.3 (2405546, 2018-03-11)"
   sodipodi:docname="FrameApp_logo.svg">
  <defs
     id="defs903" />
  <sodipodi:namedview
     id="base"
     pagecolor="#ffffff"
     bordercolor="#666666"
     borderopacity="1.0"
     inkscape:pageopacity="0.0"
     inkscape:pageshadow="2"
     inkscape:zoom="0.20980632"
     inkscape:cx="1935.1181"
     inkscape:cy="1935.1181"
     inkscape:document-units="mm"
     inkscape:current-layer="layer1"
     showgrid="false"
     inkscape:window-width="1920"
     inkscape:window-height="1006"
     inkscape:window-x="0"
     inkscape:window-y="25"
     inkscape:window-maximized="1" />
  <metadata
     id="metadata906">
    <rdf:RDF>
      <cc:Work
         rdf:about="">
        <dc:format>image/svg+xml</dc:format>
        <dc:type
           rdf:resource="http://purl.org/dc/dcmitype/StillImage" />
        <dc:title></dc:title>
      </cc:Work>
    </rdf:RDF>
  </metadata>
  <g
     inkscape:label="Layer 1"
     inkscape:groupmode="layer"
     id="layer1"
     transform="translate(0,727)">
    <g
       id="g1500"
       transform="matrix(9.1047847,0,0,9.1047847,-5894.8979,2902.2002)">
      <path
         d="m 680.25179,-307.98218 -11.49401,-6.63715 -11.49401,-6.6363 v -13.27261 l -8.5e-4,-13.27345 11.49571,6.6363 11.49401,6.63715 5.86293,12.09901 -5.86378,14.44705"
         style="fill:#ff7f2a;fill-opacity:1;fill-rule:evenodd;stroke:none;stroke-width:0.08461436"
         id="path917"
         inkscape:connector-curvature="0" />
      <path
         d="m 691.7475,-327.89278 -11.49486,-6.63546 11.49486,6.63631 v 13.2726 l -11.49486,6.63631 v -13.27176 -13.27346 l 11.49486,-6.63715 v 0 z m 11.49486,6.63715 -11.49486,-6.63715 v 0 -13.27261 l 11.49486,-6.6363 4.32972,13.27261 -4.32972,13.27345 -11.49486,6.6363 v -13.2726 0 l 11.49486,6.6363"
         style="fill:#034294;fill-opacity:1;fill-rule:evenodd;stroke:none;stroke-width:0.08461436"
         id="path919"
         inkscape:connector-curvature="0" />
      <path
         d="m 749.22096,-321.25563 -0.002,-13.27345 7.9e-4,-13.27261 -11.49401,6.6363 -11.49571,6.63715 h 7.9e-4 l -2.34466,12.80385 2.34551,13.74221 11.49486,-6.63715 11.49402,-6.6363"
         style="fill:#ff9955;fill-opacity:1;fill-rule:evenodd;stroke:none;stroke-width:0.08461436"
         id="path921"
         inkscape:connector-curvature="0" />
      <path
         d="m 726.23208,-307.98218 -11.4957,-6.63715 -11.49402,-6.6363 -7.9e-4,-13.27261 v -13.27345 l 11.49486,6.63715 11.49401,6.6363 v 13.27261 l 0.002,13.27345"
         style="fill:#1d9fdc;fill-opacity:1;fill-rule:evenodd;stroke:none;stroke-width:0.08461436"
         id="path923"
         inkscape:connector-curvature="0" />
      <path
         sodipodi:nodetypes="cccccccccccccc"
         inkscape:connector-curvature="0"
         id="path1480"
         style="fill:#ffccaa;fill-opacity:1;fill-rule:evenodd;stroke:none;stroke-width:0.08461436"
         d="m 726.05577,-302.39299 -22.31853,-13.91244 22.60441,13.92052 29.06281,-15.70486 -36.93286,-28.87848 -12.86686,-35.37681 11.91855,37.3247 -12.20442,-37.33364 -15.72129,38.06891 -37.63259,23.27021 28.12802,17.32214 4.55342,-2.46148 18.80407,-10.15932 22.60527,13.92055" />
    </g>
  </g>
</svg>
